<?xml version="1.0" encoding="UTF-8" standalone="no"?>
<!DOCTYPE svg PUBLIC "-//W3C//DTD SVG 1.1//EN"
 "http://www.w3.org/Graphics/SVG/1.1/DTD/svg11.dtd">
<!-- Generated by graphviz version 9.0.0 (20230911.1827)
 -->
<!-- Title: ClassLibrary.Registro Pages: 1 -->
<svg width="146pt" height="372pt"
 viewBox="0.00 0.00 146.00 372.00" xmlns="http://www.w3.org/2000/svg" xmlns:xlink="http://www.w3.org/1999/xlink">
<g id="graph0" class="graph" transform="scale(1 1) rotate(0) translate(4 368)">
<title>ClassLibrary.Registro</title>
<!-- Node1 -->
<g id="Node000001" class="node">
<title>Node1</title>
<g id="a_Node000001"><a xlink:title="Representa un registro de un Pokémon, que contiene los atributos y ataques necesarios para crear un P...">
<polygon fill="#999999" stroke="none" points="138,-180 0,-180 0,0 138,0 138,-180"/>
<text text-anchor="start" x="18" y="-166.5" font-family="Helvetica,sans-Serif" font-size="10.00">ClassLibrary.Registro</text>
<text text-anchor="start" x="3.88" y="-150.5" font-family="Helvetica,sans-Serif" font-size="10.00">+</text>
<text text-anchor="start" x="16" y="-150.5" font-family="Helvetica,sans-Serif" font-size="10.00">Name</text>
<text text-anchor="start" x="3.88" y="-134.5" font-family="Helvetica,sans-Serif" font-size="10.00">+</text>
<text text-anchor="start" x="16" y="-134.5" font-family="Helvetica,sans-Serif" font-size="10.00">Damage</text>
<text text-anchor="start" x="3.88" y="-118.5" font-family="Helvetica,sans-Serif" font-size="10.00">+</text>
<text text-anchor="start" x="16" y="-118.5" font-family="Helvetica,sans-Serif" font-size="10.00">Health</text>
<text text-anchor="start" x="3.88" y="-102.5" font-family="Helvetica,sans-Serif" font-size="10.00">+</text>
<text text-anchor="start" x="16" y="-102.5" font-family="Helvetica,sans-Serif" font-size="10.00">Defense</text>
<text text-anchor="start" x="3.88" y="-86.5" font-family="Helvetica,sans-Serif" font-size="10.00">+</text>
<text text-anchor="start" x="16" y="-86.5" font-family="Helvetica,sans-Serif" font-size="10.00">Tipo</text>
<text text-anchor="start" x="3.88" y="-70.5" font-family="Helvetica,sans-Serif" font-size="10.00">+</text>
<text text-anchor="start" x="16" y="-70.5" font-family="Helvetica,sans-Serif" font-size="10.00">Ataques</text>
<text text-anchor="start" x="3.88" y="-54.5" font-family="Helvetica,sans-Serif" font-size="10.00">+</text>
<text text-anchor="start" x="16" y="-54.5" font-family="Helvetica,sans-Serif" font-size="10.00">Registro()</text>
<text text-anchor="start" x="3.88" y="-38.5" font-family="Helvetica,sans-Serif" font-size="10.00">+</text>
<text text-anchor="start" x="16" y="-38.5" font-family="Helvetica,sans-Serif" font-size="10.00">CrearPokemon()</text>
<text text-anchor="start" x="3.88" y="-22.5" font-family="Helvetica,sans-Serif" font-size="10.00">+</text>
<text text-anchor="start" x="16" y="-22.5" font-family="Helvetica,sans-Serif" font-size="10.00">AcceptObtenerNombre()</text>
<text text-anchor="start" x="3.88" y="-6.5" font-family="Helvetica,sans-Serif" font-size="10.00">+</text>
<text text-anchor="start" x="16" y="-6.5" font-family="Helvetica,sans-Serif" font-size="10.00">AcceptCrearPokemon()</text>
<polygon fill="#666666" stroke="#666666" points="0,-162 0,-162 138,-162 138,-162 0,-162"/>
<polygon fill="#666666" stroke="#666666" points="0,-66 0,-66 14,-66 14,-66 0,-66"/>
<polygon fill="#666666" stroke="#666666" points="14,-66 14,-66 138,-66 138,-66 14,-66"/>
<polygon fill="none" stroke="#666666" points="0,0 0,-180 138,-180 138,0 0,0"/>
</a>
</g>
</g>
<!-- Node2 -->
<g id="Node000002" class="node">
<title>Node2</title>
<g id="a_Node000002"><a xlink:href="interfaceClassLibrary_1_1IRegistroPokemon.html" target="_top" xlink:title="Define la interfaz para los registros de Pokémon, proporcionando propiedades para sus atributos básic...">
<polygon fill="white" stroke="none" points="138,-364 0,-364 0,-216 138,-216 138,-364"/>
<text text-anchor="start" x="24.75" y="-350.5" font-family="Helvetica,sans-Serif" font-size="10.00">IRegistroPokemon</text>
<text text-anchor="start" x="3.88" y="-334.5" font-family="Helvetica,sans-Serif" font-size="10.00">+</text>
<text text-anchor="start" x="16" y="-334.5" font-family="Helvetica,sans-Serif" font-size="10.00">Name</text>
<text text-anchor="start" x="3.88" y="-318.5" font-family="Helvetica,sans-Serif" font-size="10.00">+</text>
<text text-anchor="start" x="16" y="-318.5" font-family="Helvetica,sans-Serif" font-size="10.00">Damage</text>
<text text-anchor="start" x="3.88" y="-302.5" font-family="Helvetica,sans-Serif" font-size="10.00">+</text>
<text text-anchor="start" x="16" y="-302.5" font-family="Helvetica,sans-Serif" font-size="10.00">Health</text>
<text text-anchor="start" x="3.88" y="-286.5" font-family="Helvetica,sans-Serif" font-size="10.00">+</text>
<text text-anchor="start" x="16" y="-286.5" font-family="Helvetica,sans-Serif" font-size="10.00">Tipo</text>
<text text-anchor="start" x="3.88" y="-270.5" font-family="Helvetica,sans-Serif" font-size="10.00">+</text>
<text text-anchor="start" x="16" y="-270.5" font-family="Helvetica,sans-Serif" font-size="10.00">Ataques</text>
<text text-anchor="start" x="3.88" y="-254.5" font-family="Helvetica,sans-Serif" font-size="10.00">+</text>
<text text-anchor="start" x="16" y="-254.5" font-family="Helvetica,sans-Serif" font-size="10.00">CrearPokemon()</text>
<text text-anchor="start" x="3.88" y="-238.5" font-family="Helvetica,sans-Serif" font-size="10.00">+</text>
<text text-anchor="start" x="16" y="-238.5" font-family="Helvetica,sans-Serif" font-size="10.00">AcceptObtenerNombre()</text>
<text text-anchor="start" x="3.88" y="-222.5" font-family="Helvetica,sans-Serif" font-size="10.00">+</text>
<text text-anchor="start" x="16" y="-222.5" font-family="Helvetica,sans-Serif" font-size="10.00">AcceptCrearPokemon()</text>
<polygon fill="#666666" stroke="#666666" points="0,-346 0,-346 138,-346 138,-346 0,-346"/>
<polygon fill="#666666" stroke="#666666" points="0,-266 0,-266 14,-266 14,-266 0,-266"/>
<polygon fill="#666666" stroke="#666666" points="14,-266 14,-266 138,-266 138,-266 14,-266"/>
<polygon fill="none" stroke="#666666" points="0,-216 0,-364 138,-364 138,-216 0,-216"/>
</a>
</g>
</g>
<!-- Node2&#45;&gt;Node1 -->
<g id="edge1_Node000001_Node000002" class="edge">
<title>Node2&#45;&gt;Node1</title>
<g id="a_edge1_Node000001_Node000002"><a xlink:title=" ">
<path fill="none" stroke="#63b8ff" d="M69,-204.64C69,-196.44 69,-188.1 69,-179.86"/>
<polygon fill="none" stroke="#63b8ff" points="65.5,-204.6 69,-214.6 72.5,-204.6 65.5,-204.6"/>
</a>
</g>
</g>
</g>
</svg>
