<?xml version="1.0" encoding="UTF-8" standalone="no"?>
<!DOCTYPE svg PUBLIC "-//W3C//DTD SVG 1.1//EN"
 "http://www.w3.org/Graphics/SVG/1.1/DTD/svg11.dtd">
<!-- Generated by graphviz version 9.0.0 (20230911.1827)
 -->
<!-- Title: ClassLibrary.TablaDeTipos Pages: 1 -->
<svg width="230pt" height="206pt"
 viewBox="0.00 0.00 229.50 205.75" xmlns="http://www.w3.org/2000/svg" xmlns:xlink="http://www.w3.org/1999/xlink">

<svg id="main" version="1.1" xmlns="http://www.w3.org/2000/svg" xmlns:xlink="http://www.w3.org/1999/xlink" xml:space="preserve" onload="init(evt)">
<style type="text/css"><![CDATA[
.node, .edge {opacity: 0.7;}
.node.selected, .edge.selected {opacity: 1;}
.edge:hover path { stroke: red; }
.edge:hover polygon { stroke: red; fill: red; }
]]></style>
<script type="application/ecmascript" xlink:href="svg.min.js"/>
<svg id="graph" class="graph">
<g id="graph0" class="graph" transform="scale(1 1) rotate(0) translate(4 201.75)">
<title>ClassLibrary.TablaDeTipos</title>
<!-- Node1 -->
<g id="Node000001" class="node">
<title>Node1</title>
<g id="a_Node000001"><a xlink:title="La clase TablaDeTipos gestiona las relaciones de fortalezas, debilidades e inmunidades entre los tipo...">
<polygon fill="#999999" stroke="none" points="198.5,-84 28.5,-84 28.5,0 198.5,0 198.5,-84"/>
<text text-anchor="start" x="50.12" y="-70.5" font-family="Helvetica,sans-Serif" font-size="10.00">ClassLibrary.TablaDeTipos</text>
<text text-anchor="start" x="112" y="-54.5" font-family="Helvetica,sans-Serif" font-size="10.00"> </text>
<text text-anchor="start" x="32.38" y="-38.5" font-family="Helvetica,sans-Serif" font-size="10.00">+</text>
<text text-anchor="start" x="44.5" y="-38.5" font-family="Helvetica,sans-Serif" font-size="10.00">CrearTabla()</text>
<text text-anchor="start" x="32.38" y="-22.5" font-family="Helvetica,sans-Serif" font-size="10.00">+</text>
<text text-anchor="start" x="44.5" y="-22.5" font-family="Helvetica,sans-Serif" font-size="10.00">ObtenerRelaciones()</text>
<text text-anchor="start" x="32.38" y="-6.5" font-family="Helvetica,sans-Serif" font-size="10.00">+</text>
<text text-anchor="start" x="44.5" y="-6.5" font-family="Helvetica,sans-Serif" font-size="10.00">ObtenterRelacionMatematica()</text>
<polygon fill="#666666" stroke="#666666" points="28.5,-66 28.5,-66 198.5,-66 198.5,-66 28.5,-66"/>
<polygon fill="#666666" stroke="#666666" points="28.5,-50 28.5,-50 198.5,-50 198.5,-50 28.5,-50"/>
<polygon fill="none" stroke="#666666" points="28.5,0 28.5,-84 198.5,-84 198.5,0 28.5,0"/>
</a>
</g>
</g>
<!-- Node2 -->
<g id="Node000002" class="node">
<title>Node2</title>
<g id="a_Node000002"><a xlink:title=" ">
<polygon fill="white" stroke="none" points="107,-191.25 0,-191.25 0,-139.25 107,-139.25 107,-191.25"/>
<text text-anchor="start" x="4.75" y="-177.75" font-family="Helvetica,sans-Serif" font-size="10.00">static List&lt; string &gt;</text>
<text text-anchor="start" x="52" y="-161.75" font-family="Helvetica,sans-Serif" font-size="10.00"> </text>
<text text-anchor="start" x="52" y="-145.75" font-family="Helvetica,sans-Serif" font-size="10.00"> </text>
<polygon fill="#bfbfbf" stroke="#bfbfbf" points="0,-173.25 0,-173.25 107,-173.25 107,-173.25 0,-173.25"/>
<polygon fill="#bfbfbf" stroke="#bfbfbf" points="0,-157.25 0,-157.25 107,-157.25 107,-157.25 0,-157.25"/>
<polygon fill="none" stroke="#bfbfbf" points="0,-139.25 0,-191.25 107,-191.25 107,-139.25 0,-139.25"/>
</a>
</g>
</g>
<!-- Node2&#45;&gt;Node1 -->
<g id="edge1_Node000001_Node000002" class="edge">
<title>Node2&#45;&gt;Node1</title>
<g id="a_edge1_Node000001_Node000002"><a xlink:title=" ">
<path fill="none" stroke="#63b8ff" d="M65.79,-139.42C72.13,-126.61 80.11,-110.48 87.72,-95.1"/>
<polygon fill="none" stroke="#63b8ff" points="87.71,-95.11 86.79,-87.96 93.04,-84.36 93.96,-91.51 87.71,-95.11"/>
</a>
</g>
<text text-anchor="middle" x="113.5" y="-105.25" font-family="Helvetica,sans-Serif" font-size="10.00" fill="grey"> +fortalezas</text>
</g>
<!-- Node3 -->
<g id="Node000003" class="node">
<title>Node3</title>
<g id="a_Node000003"><a xlink:title=" ">
<polygon fill="white" stroke="none" points="221.5,-197.75 125.5,-197.75 125.5,-132.75 221.5,-132.75 221.5,-197.75"/>
<text text-anchor="start" x="130.38" y="-184.25" font-family="Helvetica,sans-Serif" font-size="10.00">static List&lt; string</text>
<text text-anchor="start" x="132.62" y="-171.5" font-family="Helvetica,sans-Serif" font-size="10.00"> &gt; List&lt; string &gt;</text>
<text text-anchor="start" x="172" y="-155.25" font-family="Helvetica,sans-Serif" font-size="10.00"> </text>
<text text-anchor="start" x="172" y="-139.25" font-family="Helvetica,sans-Serif" font-size="10.00"> </text>
<polygon fill="#bfbfbf" stroke="#bfbfbf" points="125.5,-166.75 125.5,-166.75 221.5,-166.75 221.5,-166.75 125.5,-166.75"/>
<polygon fill="#bfbfbf" stroke="#bfbfbf" points="125.5,-150.75 125.5,-150.75 221.5,-150.75 221.5,-150.75 125.5,-150.75"/>
<polygon fill="none" stroke="#bfbfbf" points="125.5,-132.75 125.5,-197.75 221.5,-197.75 221.5,-132.75 125.5,-132.75"/>
</a>
</g>
</g>
<!-- Node3&#45;&gt;Node1 -->
<g id="edge2_Node000001_Node000003" class="edge">
<title>Node3&#45;&gt;Node1</title>
<g id="a_edge2_Node000001_Node000003"><a xlink:title=" ">
<path fill="none" stroke="#63b8ff" d="M161.3,-132.87C157.18,-122.88 152.38,-111.87 147.5,-102 146.4,-99.77 145.25,-97.52 144.07,-95.25"/>
<polygon fill="none" stroke="#63b8ff" points="144.07,-95.26 137.71,-91.87 138.39,-84.69 144.75,-88.08 144.07,-95.26"/>
</a>
</g>
<text text-anchor="middle" x="186.25" y="-105.25" font-family="Helvetica,sans-Serif" font-size="10.00" fill="grey"> +debilidades</text>
</g>
</g>
</svg>
</svg>

<style type='text/css'>
<![CDATA[
[data-mouse-over-selected='false'] { opacity: 0.7; }
[data-mouse-over-selected='true']  { opacity: 1.0; }
]]>
</style>
<script type="application/ecmascript"><![CDATA[
document.addEventListener('DOMContentLoaded', (event) => {
  highlightEdges();
  highlightAdjacentNodes();
});
]]></script>
</svg>
