<?xml version="1.0" encoding="UTF-8" standalone="no"?>
<!DOCTYPE svg PUBLIC "-//W3C//DTD SVG 1.1//EN"
 "http://www.w3.org/Graphics/SVG/1.1/DTD/svg11.dtd">
<!-- Generated by graphviz version 9.0.0 (20230911.1827)
 -->
<!-- Title: ClassLibrary.SuperPotion Pages: 1 -->
<svg width="138pt" height="148pt"
 viewBox="0.00 0.00 138.00 148.00" xmlns="http://www.w3.org/2000/svg" xmlns:xlink="http://www.w3.org/1999/xlink">
<g id="graph0" class="graph" transform="scale(1 1) rotate(0) translate(4 144)">
<title>ClassLibrary.SuperPotion</title>
<!-- Node1 -->
<g id="Node000001" class="node">
<title>Node1</title>
<g id="a_Node000001"><a xlink:title="Representa un objeto de tipo SuperPotion, que es un ítem que puede ser usado para curar a un Pokémon.">
<polygon fill="#999999" stroke="none" points="130,-52 0,-52 0,0 130,0 130,-52"/>
<text text-anchor="start" x="5" y="-38.5" font-family="Helvetica,sans-Serif" font-size="10.00">ClassLibrary.SuperPotion</text>
<text text-anchor="start" x="21.38" y="-22.5" font-family="Helvetica,sans-Serif" font-size="10.00">+</text>
<text text-anchor="start" x="51" y="-22.5" font-family="Helvetica,sans-Serif" font-size="10.00">Nombre</text>
<text text-anchor="start" x="21.38" y="-6.5" font-family="Helvetica,sans-Serif" font-size="10.00">+</text>
<text text-anchor="start" x="51" y="-6.5" font-family="Helvetica,sans-Serif" font-size="10.00">Usar()</text>
<polygon fill="#666666" stroke="#666666" points="0,-34 0,-34 130,-34 130,-34 0,-34"/>
<polygon fill="#666666" stroke="#666666" points="0,-18 0,-18 49,-18 49,-18 0,-18"/>
<polygon fill="#666666" stroke="#666666" points="49,-18 49,-18 130,-18 130,-18 49,-18"/>
<polygon fill="none" stroke="#666666" points="0,0 0,-52 130,-52 130,0 0,0"/>
</a>
</g>
</g>
<!-- Node2 -->
<g id="Node000002" class="node">
<title>Node2</title>
<g id="a_Node000002"><a xlink:href="interfaceClassLibrary_1_1IItem.html" target="_top" xlink:title="Define la interfaz para representar un item en el juego de Pokémon, proporcionando propiedades y méto...">
<polygon fill="white" stroke="none" points="94.5,-140 35.5,-140 35.5,-88 94.5,-88 94.5,-140"/>
<text text-anchor="start" x="52.25" y="-126.5" font-family="Helvetica,sans-Serif" font-size="10.00">IItem</text>
<text text-anchor="start" x="39.38" y="-110.5" font-family="Helvetica,sans-Serif" font-size="10.00">+</text>
<text text-anchor="start" x="51.5" y="-110.5" font-family="Helvetica,sans-Serif" font-size="10.00">Nombre</text>
<text text-anchor="start" x="39.38" y="-94.5" font-family="Helvetica,sans-Serif" font-size="10.00">+</text>
<text text-anchor="start" x="51.5" y="-94.5" font-family="Helvetica,sans-Serif" font-size="10.00">Usar()</text>
<polygon fill="#666666" stroke="#666666" points="35.5,-122 35.5,-122 94.5,-122 94.5,-122 35.5,-122"/>
<polygon fill="#666666" stroke="#666666" points="35.5,-106 35.5,-106 49.5,-106 49.5,-106 35.5,-106"/>
<polygon fill="#666666" stroke="#666666" points="49.5,-106 49.5,-106 94.5,-106 94.5,-106 49.5,-106"/>
<polygon fill="none" stroke="#666666" points="35.5,-88 35.5,-140 94.5,-140 94.5,-88 35.5,-88"/>
</a>
</g>
</g>
<!-- Node2&#45;&gt;Node1 -->
<g id="edge1_Node000001_Node000002" class="edge">
<title>Node2&#45;&gt;Node1</title>
<g id="a_edge1_Node000001_Node000002"><a xlink:title=" ">
<path fill="none" stroke="#63b8ff" d="M65,-76.66C65,-68.29 65,-59.57 65,-51.82"/>
<polygon fill="none" stroke="#63b8ff" points="61.5,-76.61 65,-86.61 68.5,-76.61 61.5,-76.61"/>
</a>
</g>
</g>
</g>
</svg>
