<?xml version="1.0" encoding="UTF-8" standalone="no"?>
<!DOCTYPE svg PUBLIC "-//W3C//DTD SVG 1.1//EN"
 "http://www.w3.org/Graphics/SVG/1.1/DTD/svg11.dtd">
<!-- Generated by graphviz version 9.0.0 (20230911.1827)
 -->
<!-- Title: ClassLibrary.Revive Pages: 1 -->
<svg width="113pt" height="148pt"
 viewBox="0.00 0.00 113.00 148.00" xmlns="http://www.w3.org/2000/svg" xmlns:xlink="http://www.w3.org/1999/xlink">
<g id="graph0" class="graph" transform="scale(1 1) rotate(0) translate(4 144)">
<title>ClassLibrary.Revive</title>
<!-- Node1 -->
<g id="Node000001" class="node">
<title>Node1</title>
<g id="a_Node000001"><a xlink:title="Representa un objeto de tipo Revive, que es un ítem que puede ser usado para revivir a un Pokémon deb...">
<polygon fill="#999999" stroke="none" points="105,-52 0,-52 0,0 105,0 105,-52"/>
<text text-anchor="start" x="4.88" y="-38.5" font-family="Helvetica,sans-Serif" font-size="10.00">ClassLibrary.Revive</text>
<text text-anchor="start" x="15.38" y="-22.5" font-family="Helvetica,sans-Serif" font-size="10.00">+</text>
<text text-anchor="start" x="39" y="-22.5" font-family="Helvetica,sans-Serif" font-size="10.00">Nombre</text>
<text text-anchor="start" x="15.38" y="-6.5" font-family="Helvetica,sans-Serif" font-size="10.00">+</text>
<text text-anchor="start" x="39" y="-6.5" font-family="Helvetica,sans-Serif" font-size="10.00">Usar()</text>
<polygon fill="#666666" stroke="#666666" points="0,-34 0,-34 105,-34 105,-34 0,-34"/>
<polygon fill="#666666" stroke="#666666" points="0,-18 0,-18 37,-18 37,-18 0,-18"/>
<polygon fill="#666666" stroke="#666666" points="37,-18 37,-18 105,-18 105,-18 37,-18"/>
<polygon fill="none" stroke="#666666" points="0,0 0,-52 105,-52 105,0 0,0"/>
</a>
</g>
</g>
<!-- Node2 -->
<g id="Node000002" class="node">
<title>Node2</title>
<g id="a_Node000002"><a xlink:href="interfaceClassLibrary_1_1IItem.html" target="_top" xlink:title="Define la interfaz para representar un item en el juego de Pokémon, proporcionando propiedades y méto...">
<polygon fill="white" stroke="none" points="82,-140 23,-140 23,-88 82,-88 82,-140"/>
<text text-anchor="start" x="39.75" y="-126.5" font-family="Helvetica,sans-Serif" font-size="10.00">IItem</text>
<text text-anchor="start" x="26.88" y="-110.5" font-family="Helvetica,sans-Serif" font-size="10.00">+</text>
<text text-anchor="start" x="39" y="-110.5" font-family="Helvetica,sans-Serif" font-size="10.00">Nombre</text>
<text text-anchor="start" x="26.88" y="-94.5" font-family="Helvetica,sans-Serif" font-size="10.00">+</text>
<text text-anchor="start" x="39" y="-94.5" font-family="Helvetica,sans-Serif" font-size="10.00">Usar()</text>
<polygon fill="#666666" stroke="#666666" points="23,-122 23,-122 82,-122 82,-122 23,-122"/>
<polygon fill="#666666" stroke="#666666" points="23,-106 23,-106 37,-106 37,-106 23,-106"/>
<polygon fill="#666666" stroke="#666666" points="37,-106 37,-106 82,-106 82,-106 37,-106"/>
<polygon fill="none" stroke="#666666" points="23,-88 23,-140 82,-140 82,-88 23,-88"/>
</a>
</g>
</g>
<!-- Node2&#45;&gt;Node1 -->
<g id="edge1_Node000001_Node000002" class="edge">
<title>Node2&#45;&gt;Node1</title>
<g id="a_edge1_Node000001_Node000002"><a xlink:title=" ">
<path fill="none" stroke="#63b8ff" d="M52.5,-76.66C52.5,-68.29 52.5,-59.57 52.5,-51.82"/>
<polygon fill="none" stroke="#63b8ff" points="49,-76.61 52.5,-86.61 56,-76.61 49,-76.61"/>
</a>
</g>
</g>
</g>
</svg>
