<?xml version="1.0" encoding="UTF-8" standalone="no"?>
<!DOCTYPE svg PUBLIC "-//W3C//DTD SVG 1.1//EN"
 "http://www.w3.org/Graphics/SVG/1.1/DTD/svg11.dtd">
<!-- Generated by graphviz version 9.0.0 (20230911.1827)
 -->
<!-- Title: ClassLibrary.Ataque Pages: 1 -->
<svg width="114pt" height="276pt"
 viewBox="0.00 0.00 114.00 276.00" xmlns="http://www.w3.org/2000/svg" xmlns:xlink="http://www.w3.org/1999/xlink">

<svg id="main" version="1.1" xmlns="http://www.w3.org/2000/svg" xmlns:xlink="http://www.w3.org/1999/xlink" xml:space="preserve" onload="init(evt)">
<style type="text/css"><![CDATA[
.node, .edge {opacity: 0.7;}
.node.selected, .edge.selected {opacity: 1;}
.edge:hover path { stroke: red; }
.edge:hover polygon { stroke: red; fill: red; }
]]></style>
<script type="application/ecmascript" xlink:href="svg.min.js"/>
<svg id="graph" class="graph">
<g id="graph0" class="graph" transform="scale(1 1) rotate(0) translate(4 272)">
<title>ClassLibrary.Ataque</title>
<!-- Node1 -->
<g id="Node000001" class="node">
<title>Node1</title>
<g id="a_Node000001"><a xlink:title="Representa un ataque en el juego, con propiedades que definen su nombre, poder, precisión,...">
<polygon fill="#999999" stroke="none" points="106,-116 0,-116 0,0 106,0 106,-116"/>
<text text-anchor="start" x="5" y="-102.5" font-family="Helvetica,sans-Serif" font-size="10.00">ClassLibrary.Ataque</text>
<text text-anchor="start" x="14.38" y="-86.5" font-family="Helvetica,sans-Serif" font-size="10.00">+</text>
<text text-anchor="start" x="37" y="-86.5" font-family="Helvetica,sans-Serif" font-size="10.00">Name</text>
<text text-anchor="start" x="14.38" y="-70.5" font-family="Helvetica,sans-Serif" font-size="10.00">+</text>
<text text-anchor="start" x="37" y="-70.5" font-family="Helvetica,sans-Serif" font-size="10.00">Poder</text>
<text text-anchor="start" x="14.38" y="-54.5" font-family="Helvetica,sans-Serif" font-size="10.00">+</text>
<text text-anchor="start" x="37" y="-54.5" font-family="Helvetica,sans-Serif" font-size="10.00">Precision</text>
<text text-anchor="start" x="14.38" y="-38.5" font-family="Helvetica,sans-Serif" font-size="10.00">+</text>
<text text-anchor="start" x="37" y="-38.5" font-family="Helvetica,sans-Serif" font-size="10.00">Tipo</text>
<text text-anchor="start" x="14.38" y="-22.5" font-family="Helvetica,sans-Serif" font-size="10.00">+</text>
<text text-anchor="start" x="37" y="-22.5" font-family="Helvetica,sans-Serif" font-size="10.00">Especial</text>
<text text-anchor="start" x="14.38" y="-6.5" font-family="Helvetica,sans-Serif" font-size="10.00">+</text>
<text text-anchor="start" x="37" y="-6.5" font-family="Helvetica,sans-Serif" font-size="10.00">Ataque()</text>
<polygon fill="#666666" stroke="#666666" points="0,-98 0,-98 106,-98 106,-98 0,-98"/>
<polygon fill="#666666" stroke="#666666" points="0,-18 0,-18 35,-18 35,-18 0,-18"/>
<polygon fill="#666666" stroke="#666666" points="35,-18 35,-18 106,-18 106,-18 35,-18"/>
<polygon fill="none" stroke="#666666" points="0,0 0,-116 106,-116 106,0 0,0"/>
</a>
</g>
</g>
<!-- Node2 -->
<g id="Node000002" class="node">
<title>Node2</title>
<g id="a_Node000002"><a xlink:href="interfaceClassLibrary_1_1IAtaque.html" target="_top" xlink:title="Define la interfaz para representar un ataque en el juego de Pokémon, proporcionando propiedades para...">
<polygon fill="white" stroke="none" points="85,-268 21,-268 21,-152 85,-152 85,-268"/>
<text text-anchor="start" x="34.25" y="-254.5" font-family="Helvetica,sans-Serif" font-size="10.00">IAtaque</text>
<text text-anchor="start" x="24.88" y="-238.5" font-family="Helvetica,sans-Serif" font-size="10.00">+</text>
<text text-anchor="start" x="37" y="-238.5" font-family="Helvetica,sans-Serif" font-size="10.00">Name</text>
<text text-anchor="start" x="24.88" y="-222.5" font-family="Helvetica,sans-Serif" font-size="10.00">+</text>
<text text-anchor="start" x="37" y="-222.5" font-family="Helvetica,sans-Serif" font-size="10.00">Poder</text>
<text text-anchor="start" x="24.88" y="-206.5" font-family="Helvetica,sans-Serif" font-size="10.00">+</text>
<text text-anchor="start" x="37" y="-206.5" font-family="Helvetica,sans-Serif" font-size="10.00">Precision</text>
<text text-anchor="start" x="24.88" y="-190.5" font-family="Helvetica,sans-Serif" font-size="10.00">+</text>
<text text-anchor="start" x="37" y="-190.5" font-family="Helvetica,sans-Serif" font-size="10.00">Tipo</text>
<text text-anchor="start" x="24.88" y="-174.5" font-family="Helvetica,sans-Serif" font-size="10.00">+</text>
<text text-anchor="start" x="37" y="-174.5" font-family="Helvetica,sans-Serif" font-size="10.00">Especial</text>
<text text-anchor="start" x="51.5" y="-158.5" font-family="Helvetica,sans-Serif" font-size="10.00"> </text>
<polygon fill="#666666" stroke="#666666" points="21,-250 21,-250 85,-250 85,-250 21,-250"/>
<polygon fill="#666666" stroke="#666666" points="21,-170 21,-170 35,-170 35,-170 21,-170"/>
<polygon fill="#666666" stroke="#666666" points="35,-170 35,-170 85,-170 85,-170 35,-170"/>
<polygon fill="none" stroke="#666666" points="21,-152 21,-268 85,-268 85,-152 21,-152"/>
</a>
</g>
</g>
<!-- Node2&#45;&gt;Node1 -->
<g id="edge1_Node000001_Node000002" class="edge">
<title>Node2&#45;&gt;Node1</title>
<g id="a_edge1_Node000001_Node000002"><a xlink:title=" ">
<path fill="none" stroke="#63b8ff" d="M53,-140.94C53,-132.53 53,-124 53,-115.79"/>
<polygon fill="none" stroke="#63b8ff" points="49.5,-140.78 53,-150.78 56.5,-140.78 49.5,-140.78"/>
</a>
</g>
</g>
</g>
</svg>
</svg>

<style type='text/css'>
<![CDATA[
[data-mouse-over-selected='false'] { opacity: 0.7; }
[data-mouse-over-selected='true']  { opacity: 1.0; }
]]>
</style>
<script type="application/ecmascript"><![CDATA[
document.addEventListener('DOMContentLoaded', (event) => {
  highlightEdges();
  highlightAdjacentNodes();
});
]]></script>
</svg>
