<?xml version="1.0" encoding="UTF-8" standalone="no"?>
<!DOCTYPE svg PUBLIC "-//W3C//DTD SVG 1.1//EN"
 "http://www.w3.org/Graphics/SVG/1.1/DTD/svg11.dtd">
<!-- Generated by graphviz version 9.0.0 (20230911.1827)
 -->
<!-- Title: ClassLibrary.InfoVisitor Pages: 1 -->
<svg width="136pt" height="180pt"
 viewBox="0.00 0.00 136.00 180.00" xmlns="http://www.w3.org/2000/svg" xmlns:xlink="http://www.w3.org/1999/xlink">

<svg id="main" version="1.1" xmlns="http://www.w3.org/2000/svg" xmlns:xlink="http://www.w3.org/1999/xlink" xml:space="preserve" onload="init(evt)">
<style type="text/css"><![CDATA[
.node, .edge {opacity: 0.7;}
.node.selected, .edge.selected {opacity: 1;}
.edge:hover path { stroke: red; }
.edge:hover polygon { stroke: red; fill: red; }
]]></style>
<script type="application/ecmascript" xlink:href="svg.min.js"/>
<svg id="graph" class="graph">
<g id="graph0" class="graph" transform="scale(1 1) rotate(0) translate(4 176)">
<title>ClassLibrary.InfoVisitor</title>
<!-- Node1 -->
<g id="Node000001" class="node">
<title>Node1</title>
<g id="a_Node000001"><a xlink:title="Implementa el patrón de diseño Visitor para proporcionar información sobre el objeto IRegistroPokemon...">
<polygon fill="#999999" stroke="none" points="128,-68 0,-68 0,0 128,0 128,-68"/>
<text text-anchor="start" x="8.12" y="-54.5" font-family="Helvetica,sans-Serif" font-size="10.00">ClassLibrary.InfoVisitor</text>
<text text-anchor="start" x="62.5" y="-38.5" font-family="Helvetica,sans-Serif" font-size="10.00"> </text>
<text text-anchor="start" x="3.88" y="-22.5" font-family="Helvetica,sans-Serif" font-size="10.00">+</text>
<text text-anchor="start" x="16" y="-22.5" font-family="Helvetica,sans-Serif" font-size="10.00">visitCrearPokemon()</text>
<text text-anchor="start" x="3.88" y="-6.5" font-family="Helvetica,sans-Serif" font-size="10.00">+</text>
<text text-anchor="start" x="16" y="-6.5" font-family="Helvetica,sans-Serif" font-size="10.00">visitNombreRegistro()</text>
<polygon fill="#666666" stroke="#666666" points="0,-50 0,-50 128,-50 128,-50 0,-50"/>
<polygon fill="#666666" stroke="#666666" points="0,-34 0,-34 128,-34 128,-34 0,-34"/>
<polygon fill="none" stroke="#666666" points="0,0 0,-68 128,-68 128,0 0,0"/>
</a>
</g>
</g>
<!-- Node2 -->
<g id="Node000002" class="node">
<title>Node2</title>
<g id="a_Node000002"><a xlink:href="interfaceClassLibrary_1_1IVisitor.html" target="_top" xlink:title="Define la interfaz para la implementación del patrón Visitor, permitiendo que los visitantes realicen...">
<polygon fill="white" stroke="none" points="128,-172 0,-172 0,-104 128,-104 128,-172"/>
<text text-anchor="start" x="46.75" y="-158.5" font-family="Helvetica,sans-Serif" font-size="10.00">IVisitor</text>
<text text-anchor="start" x="62.5" y="-142.5" font-family="Helvetica,sans-Serif" font-size="10.00"> </text>
<text text-anchor="start" x="3.88" y="-126.5" font-family="Helvetica,sans-Serif" font-size="10.00">+</text>
<text text-anchor="start" x="16" y="-126.5" font-family="Helvetica,sans-Serif" font-size="10.00">visitCrearPokemon()</text>
<text text-anchor="start" x="3.88" y="-110.5" font-family="Helvetica,sans-Serif" font-size="10.00">+</text>
<text text-anchor="start" x="16" y="-110.5" font-family="Helvetica,sans-Serif" font-size="10.00">visitNombreRegistro()</text>
<polygon fill="#666666" stroke="#666666" points="0,-154 0,-154 128,-154 128,-154 0,-154"/>
<polygon fill="#666666" stroke="#666666" points="0,-138 0,-138 128,-138 128,-138 0,-138"/>
<polygon fill="none" stroke="#666666" points="0,-104 0,-172 128,-172 128,-104 0,-104"/>
</a>
</g>
</g>
<!-- Node2&#45;&gt;Node1 -->
<g id="edge1_Node000001_Node000002" class="edge">
<title>Node2&#45;&gt;Node1</title>
<g id="a_edge1_Node000001_Node000002"><a xlink:title=" ">
<path fill="none" stroke="#63b8ff" d="M64,-92.91C64,-84.47 64,-75.78 64,-67.77"/>
<polygon fill="none" stroke="#63b8ff" points="60.5,-92.65 64,-102.65 67.5,-92.65 60.5,-92.65"/>
</a>
</g>
</g>
</g>
</svg>
</svg>

<style type='text/css'>
<![CDATA[
[data-mouse-over-selected='false'] { opacity: 0.7; }
[data-mouse-over-selected='true']  { opacity: 1.0; }
]]>
</style>
<script type="application/ecmascript"><![CDATA[
document.addEventListener('DOMContentLoaded', (event) => {
  highlightEdges();
  highlightAdjacentNodes();
});
]]></script>
</svg>
