<?xml version="1.0" encoding="UTF-8" standalone="no"?>
<!DOCTYPE svg PUBLIC "-//W3C//DTD SVG 1.1//EN"
 "http://www.w3.org/Graphics/SVG/1.1/DTD/svg11.dtd">
<!-- Generated by graphviz version 9.0.0 (20230911.1827)
 -->
<!-- Title: ClassLibrary.FullRestore Pages: 1 -->
<svg width="134pt" height="148pt"
 viewBox="0.00 0.00 134.00 148.00" xmlns="http://www.w3.org/2000/svg" xmlns:xlink="http://www.w3.org/1999/xlink">

<svg id="main" version="1.1" xmlns="http://www.w3.org/2000/svg" xmlns:xlink="http://www.w3.org/1999/xlink" xml:space="preserve" onload="init(evt)">
<style type="text/css"><![CDATA[
.node, .edge {opacity: 0.7;}
.node.selected, .edge.selected {opacity: 1;}
.edge:hover path { stroke: red; }
.edge:hover polygon { stroke: red; fill: red; }
]]></style>
<script type="application/ecmascript" xlink:href="svg.min.js"/>
<svg id="graph" class="graph">
<g id="graph0" class="graph" transform="scale(1 1) rotate(0) translate(4 144)">
<title>ClassLibrary.FullRestore</title>
<!-- Node1 -->
<g id="Node000001" class="node">
<title>Node1</title>
<g id="a_Node000001"><a xlink:title="Representa un objeto de tipo FullRestore, que es un ítem utilizado para restaurar completamente la sa...">
<polygon fill="#999999" stroke="none" points="126,-52 0,-52 0,0 126,0 126,-52"/>
<text text-anchor="start" x="4.88" y="-38.5" font-family="Helvetica,sans-Serif" font-size="10.00">ClassLibrary.FullRestore</text>
<text text-anchor="start" x="20.38" y="-22.5" font-family="Helvetica,sans-Serif" font-size="10.00">+</text>
<text text-anchor="start" x="49" y="-22.5" font-family="Helvetica,sans-Serif" font-size="10.00">Nombre</text>
<text text-anchor="start" x="20.38" y="-6.5" font-family="Helvetica,sans-Serif" font-size="10.00">+</text>
<text text-anchor="start" x="49" y="-6.5" font-family="Helvetica,sans-Serif" font-size="10.00">Usar()</text>
<polygon fill="#666666" stroke="#666666" points="0,-34 0,-34 126,-34 126,-34 0,-34"/>
<polygon fill="#666666" stroke="#666666" points="0,-18 0,-18 47,-18 47,-18 0,-18"/>
<polygon fill="#666666" stroke="#666666" points="47,-18 47,-18 126,-18 126,-18 47,-18"/>
<polygon fill="none" stroke="#666666" points="0,0 0,-52 126,-52 126,0 0,0"/>
</a>
</g>
</g>
<!-- Node2 -->
<g id="Node000002" class="node">
<title>Node2</title>
<g id="a_Node000002"><a xlink:href="interfaceClassLibrary_1_1IItem.html" target="_top" xlink:title="Define la interfaz para representar un item en el juego de Pokémon, proporcionando propiedades y méto...">
<polygon fill="white" stroke="none" points="92.5,-140 33.5,-140 33.5,-88 92.5,-88 92.5,-140"/>
<text text-anchor="start" x="50.25" y="-126.5" font-family="Helvetica,sans-Serif" font-size="10.00">IItem</text>
<text text-anchor="start" x="37.38" y="-110.5" font-family="Helvetica,sans-Serif" font-size="10.00">+</text>
<text text-anchor="start" x="49.5" y="-110.5" font-family="Helvetica,sans-Serif" font-size="10.00">Nombre</text>
<text text-anchor="start" x="37.38" y="-94.5" font-family="Helvetica,sans-Serif" font-size="10.00">+</text>
<text text-anchor="start" x="49.5" y="-94.5" font-family="Helvetica,sans-Serif" font-size="10.00">Usar()</text>
<polygon fill="#666666" stroke="#666666" points="33.5,-122 33.5,-122 92.5,-122 92.5,-122 33.5,-122"/>
<polygon fill="#666666" stroke="#666666" points="33.5,-106 33.5,-106 47.5,-106 47.5,-106 33.5,-106"/>
<polygon fill="#666666" stroke="#666666" points="47.5,-106 47.5,-106 92.5,-106 92.5,-106 47.5,-106"/>
<polygon fill="none" stroke="#666666" points="33.5,-88 33.5,-140 92.5,-140 92.5,-88 33.5,-88"/>
</a>
</g>
</g>
<!-- Node2&#45;&gt;Node1 -->
<g id="edge1_Node000001_Node000002" class="edge">
<title>Node2&#45;&gt;Node1</title>
<g id="a_edge1_Node000001_Node000002"><a xlink:title=" ">
<path fill="none" stroke="#63b8ff" d="M63,-76.66C63,-68.29 63,-59.57 63,-51.82"/>
<polygon fill="none" stroke="#63b8ff" points="59.5,-76.61 63,-86.61 66.5,-76.61 59.5,-76.61"/>
</a>
</g>
</g>
</g>
</svg>
</svg>

<style type='text/css'>
<![CDATA[
[data-mouse-over-selected='false'] { opacity: 0.7; }
[data-mouse-over-selected='true']  { opacity: 1.0; }
]]>
</style>
<script type="application/ecmascript"><![CDATA[
document.addEventListener('DOMContentLoaded', (event) => {
  highlightEdges();
  highlightAdjacentNodes();
});
]]></script>
</svg>
