<?xml version="1.0" encoding="UTF-8" standalone="no"?>
<!DOCTYPE svg PUBLIC "-//W3C//DTD SVG 1.1//EN"
 "http://www.w3.org/Graphics/SVG/1.1/DTD/svg11.dtd">
<!-- Generated by graphviz version 9.0.0 (20230911.1827)
 -->
<!-- Title: Graphical Class Hierarchy Pages: 1 -->
<svg width="283pt" height="107pt"
 viewBox="0.00 0.00 283.00 106.75" xmlns="http://www.w3.org/2000/svg" xmlns:xlink="http://www.w3.org/1999/xlink">
<g id="graph0" class="graph" transform="scale(1 1) rotate(0) translate(4 102.75)">
<title>Graphical Class Hierarchy</title>
<!-- Node0 -->
<g id="Node000000" class="node">
<title>Node0</title>
<g id="a_Node000000"><a xlink:href="interfaceClassLibrary_1_1IItem.html" target="_top" xlink:title="Define la interfaz para representar un item en el juego de Pokémon, proporcionando propiedades y méto...">
<polygon fill="white" stroke="#666666" points="103,-59.75 0,-59.75 0,-39 103,-39 103,-59.75"/>
<text text-anchor="middle" x="51.5" y="-46.25" font-family="Helvetica,sans-Serif" font-size="10.00">ClassLibrary.IItem</text>
</a>
</g>
</g>
<!-- Node1 -->
<g id="Node000001" class="node">
<title>Node1</title>
<g id="a_Node000001"><a xlink:href="classClassLibrary_1_1FullRestore.html" target="_top" xlink:title="Representa un objeto de tipo FullRestore, que es un ítem utilizado para restaurar completamente la sa...">
<polygon fill="white" stroke="#666666" points="273.12,-98.75 140.88,-98.75 140.88,-78 273.12,-78 273.12,-98.75"/>
<text text-anchor="middle" x="207" y="-85.25" font-family="Helvetica,sans-Serif" font-size="10.00">ClassLibrary.FullRestore</text>
</a>
</g>
</g>
<!-- Node0&#45;&gt;Node1 -->
<g id="edge2_Node000000_Node000001" class="edge">
<title>Node0&#45;&gt;Node1</title>
<g id="a_edge2_Node000000_Node000001"><a xlink:title=" ">
<path fill="none" stroke="#63b8ff" d="M106.27,-63.04C124.92,-67.77 145.56,-73.02 163.21,-77.5"/>
<polygon fill="#63b8ff" stroke="#63b8ff" points="107.28,-59.68 96.73,-60.61 105.56,-66.47 107.28,-59.68"/>
</a>
</g>
</g>
<!-- Node2 -->
<g id="Node000002" class="node">
<title>Node2</title>
<g id="a_Node000002"><a xlink:href="classClassLibrary_1_1Revive.html" target="_top" xlink:title="Representa un objeto de tipo Revive, que es un ítem que puede ser usado para revivir a un Pokémon deb...">
<polygon fill="white" stroke="#666666" points="262.62,-59.75 151.38,-59.75 151.38,-39 262.62,-39 262.62,-59.75"/>
<text text-anchor="middle" x="207" y="-46.25" font-family="Helvetica,sans-Serif" font-size="10.00">ClassLibrary.Revive</text>
</a>
</g>
</g>
<!-- Node0&#45;&gt;Node2 -->
<g id="edge3_Node000000_Node000002" class="edge">
<title>Node0&#45;&gt;Node2</title>
<g id="a_edge3_Node000000_Node000002"><a xlink:title=" ">
<path fill="none" stroke="#63b8ff" d="M114.59,-49.38C126.69,-49.38 139.29,-49.38 151.14,-49.38"/>
<polygon fill="#63b8ff" stroke="#63b8ff" points="114.7,-45.88 104.7,-49.38 114.7,-52.88 114.7,-45.88"/>
</a>
</g>
</g>
<!-- Node3 -->
<g id="Node000003" class="node">
<title>Node3</title>
<g id="a_Node000003"><a xlink:href="classClassLibrary_1_1SuperPotion.html" target="_top" xlink:title="Representa un objeto de tipo SuperPotion, que es un ítem que puede ser usado para curar a un Pokémon.">
<polygon fill="white" stroke="#666666" points="275,-20.75 139,-20.75 139,0 275,0 275,-20.75"/>
<text text-anchor="middle" x="207" y="-7.25" font-family="Helvetica,sans-Serif" font-size="10.00">ClassLibrary.SuperPotion</text>
</a>
</g>
</g>
<!-- Node0&#45;&gt;Node3 -->
<g id="edge4_Node000000_Node000003" class="edge">
<title>Node0&#45;&gt;Node3</title>
<g id="a_edge4_Node000000_Node000003"><a xlink:title=" ">
<path fill="none" stroke="#63b8ff" d="M106.27,-35.71C124.92,-30.98 145.56,-25.73 163.21,-21.25"/>
<polygon fill="#63b8ff" stroke="#63b8ff" points="105.56,-32.28 96.73,-38.14 107.28,-39.07 105.56,-32.28"/>
</a>
</g>
</g>
</g>
</svg>
