<?xml version="1.0" encoding="UTF-8" standalone="no"?>
<!DOCTYPE svg PUBLIC "-//W3C//DTD SVG 1.1//EN"
 "http://www.w3.org/Graphics/SVG/1.1/DTD/svg11.dtd">
<!-- Generated by graphviz version 9.0.0 (20230911.1827)
 -->
<!-- Title: ClassLibrary.IRegistroPokemon Pages: 1 -->
<svg width="168pt" height="156pt"
 viewBox="0.00 0.00 168.00 156.00" xmlns="http://www.w3.org/2000/svg" xmlns:xlink="http://www.w3.org/1999/xlink">
<g id="graph0" class="graph" transform="scale(1 1) rotate(0) translate(4 152)">
<title>ClassLibrary.IRegistroPokemon</title>
<!-- Node1 -->
<g id="Node000001" class="node">
<title>Node1</title>
<g id="a_Node000001"><a xlink:title="Define la interfaz para los registros de Pokémon, proporcionando propiedades para sus atributos básic...">
<polygon fill="#999999" stroke="none" points="160,-148 0,-148 0,0 160,0 160,-148"/>
<text text-anchor="start" x="5" y="-134.5" font-family="Helvetica,sans-Serif" font-size="10.00">ClassLibrary.IRegistroPokemon</text>
<text text-anchor="start" x="9.38" y="-118.5" font-family="Helvetica,sans-Serif" font-size="10.00">+</text>
<text text-anchor="start" x="27" y="-118.5" font-family="Helvetica,sans-Serif" font-size="10.00">Name</text>
<text text-anchor="start" x="9.38" y="-102.5" font-family="Helvetica,sans-Serif" font-size="10.00">+</text>
<text text-anchor="start" x="27" y="-102.5" font-family="Helvetica,sans-Serif" font-size="10.00">Damage</text>
<text text-anchor="start" x="9.38" y="-86.5" font-family="Helvetica,sans-Serif" font-size="10.00">+</text>
<text text-anchor="start" x="27" y="-86.5" font-family="Helvetica,sans-Serif" font-size="10.00">Health</text>
<text text-anchor="start" x="9.38" y="-70.5" font-family="Helvetica,sans-Serif" font-size="10.00">+</text>
<text text-anchor="start" x="27" y="-70.5" font-family="Helvetica,sans-Serif" font-size="10.00">Tipo</text>
<text text-anchor="start" x="9.38" y="-54.5" font-family="Helvetica,sans-Serif" font-size="10.00">+</text>
<text text-anchor="start" x="27" y="-54.5" font-family="Helvetica,sans-Serif" font-size="10.00">Ataques</text>
<text text-anchor="start" x="9.38" y="-38.5" font-family="Helvetica,sans-Serif" font-size="10.00">+</text>
<text text-anchor="start" x="27" y="-38.5" font-family="Helvetica,sans-Serif" font-size="10.00">CrearPokemon()</text>
<text text-anchor="start" x="9.38" y="-22.5" font-family="Helvetica,sans-Serif" font-size="10.00">+</text>
<text text-anchor="start" x="27" y="-22.5" font-family="Helvetica,sans-Serif" font-size="10.00">AcceptObtenerNombre()</text>
<text text-anchor="start" x="9.38" y="-6.5" font-family="Helvetica,sans-Serif" font-size="10.00">+</text>
<text text-anchor="start" x="27" y="-6.5" font-family="Helvetica,sans-Serif" font-size="10.00">AcceptCrearPokemon()</text>
<polygon fill="#666666" stroke="#666666" points="0,-130 0,-130 160,-130 160,-130 0,-130"/>
<polygon fill="#666666" stroke="#666666" points="0,-50 0,-50 25,-50 25,-50 0,-50"/>
<polygon fill="#666666" stroke="#666666" points="25,-50 25,-50 160,-50 160,-50 25,-50"/>
<polygon fill="none" stroke="#666666" points="0,0 0,-148 160,-148 160,0 0,0"/>
</a>
</g>
</g>
</g>
</svg>
