<?xml version="1.0" encoding="UTF-8" standalone="no"?>
<!DOCTYPE svg PUBLIC "-//W3C//DTD SVG 1.1//EN"
 "http://www.w3.org/Graphics/SVG/1.1/DTD/svg11.dtd">
<!-- Generated by graphviz version 9.0.0 (20230911.1827)
 -->
<!-- Title: ClassLibrary.IItem Pages: 1 -->
<svg width="406pt" height="148pt"
 viewBox="0.00 0.00 406.00 148.00" xmlns="http://www.w3.org/2000/svg" xmlns:xlink="http://www.w3.org/1999/xlink">
<g id="graph0" class="graph" transform="scale(1 1) rotate(0) translate(4 144)">
<title>ClassLibrary.IItem</title>
<!-- Node1 -->
<g id="Node000001" class="node">
<title>Node1</title>
<g id="a_Node000001"><a xlink:title="Define la interfaz para representar un item en el juego de Pokémon, proporcionando propiedades y méto...">
<polygon fill="#999999" stroke="none" points="245.5,-140 148.5,-140 148.5,-88 245.5,-88 245.5,-140"/>
<text text-anchor="start" x="153.5" y="-126.5" font-family="Helvetica,sans-Serif" font-size="10.00">ClassLibrary.IItem</text>
<text text-anchor="start" x="161.88" y="-110.5" font-family="Helvetica,sans-Serif" font-size="10.00">+</text>
<text text-anchor="start" x="183.5" y="-110.5" font-family="Helvetica,sans-Serif" font-size="10.00">Nombre</text>
<text text-anchor="start" x="161.88" y="-94.5" font-family="Helvetica,sans-Serif" font-size="10.00">+</text>
<text text-anchor="start" x="183.5" y="-94.5" font-family="Helvetica,sans-Serif" font-size="10.00">Usar()</text>
<polygon fill="#666666" stroke="#666666" points="148.5,-122 148.5,-122 245.5,-122 245.5,-122 148.5,-122"/>
<polygon fill="#666666" stroke="#666666" points="148.5,-106 148.5,-106 181.5,-106 181.5,-106 148.5,-106"/>
<polygon fill="#666666" stroke="#666666" points="181.5,-106 181.5,-106 245.5,-106 245.5,-106 181.5,-106"/>
<polygon fill="none" stroke="#666666" points="148.5,-88 148.5,-140 245.5,-140 245.5,-88 148.5,-88"/>
</a>
</g>
</g>
<!-- Node2 -->
<g id="Node000002" class="node">
<title>Node2</title>
<g id="a_Node000002"><a xlink:href="classClassLibrary_1_1FullRestore.html" target="_top" xlink:title="Representa un objeto de tipo FullRestore, que es un ítem utilizado para restaurar completamente la sa...">
<polygon fill="white" stroke="none" points="126,-52 0,-52 0,0 126,0 126,-52"/>
<text text-anchor="start" x="4.88" y="-38.5" font-family="Helvetica,sans-Serif" font-size="10.00">ClassLibrary.FullRestore</text>
<text text-anchor="start" x="20.38" y="-22.5" font-family="Helvetica,sans-Serif" font-size="10.00">+</text>
<text text-anchor="start" x="49" y="-22.5" font-family="Helvetica,sans-Serif" font-size="10.00">Nombre</text>
<text text-anchor="start" x="20.38" y="-6.5" font-family="Helvetica,sans-Serif" font-size="10.00">+</text>
<text text-anchor="start" x="49" y="-6.5" font-family="Helvetica,sans-Serif" font-size="10.00">Usar()</text>
<polygon fill="#666666" stroke="#666666" points="0,-34 0,-34 126,-34 126,-34 0,-34"/>
<polygon fill="#666666" stroke="#666666" points="0,-18 0,-18 47,-18 47,-18 0,-18"/>
<polygon fill="#666666" stroke="#666666" points="47,-18 47,-18 126,-18 126,-18 47,-18"/>
<polygon fill="none" stroke="#666666" points="0,0 0,-52 126,-52 126,0 0,0"/>
</a>
</g>
</g>
<!-- Node1&#45;&gt;Node2 -->
<g id="edge1_Node000001_Node000002" class="edge">
<title>Node1&#45;&gt;Node2</title>
<g id="a_edge1_Node000001_Node000002"><a xlink:title=" ">
<path fill="none" stroke="#63b8ff" d="M148.82,-82.08C133.33,-72.14 116.38,-61.26 101.67,-51.82"/>
<polygon fill="none" stroke="#63b8ff" points="146.66,-84.85 156.97,-87.31 150.44,-78.96 146.66,-84.85"/>
</a>
</g>
</g>
<!-- Node3 -->
<g id="Node000003" class="node">
<title>Node3</title>
<g id="a_Node000003"><a xlink:href="classClassLibrary_1_1Revive.html" target="_top" xlink:title="Representa un objeto de tipo Revive, que es un ítem que puede ser usado para revivir a un Pokémon deb...">
<polygon fill="white" stroke="none" points="249.5,-52 144.5,-52 144.5,0 249.5,0 249.5,-52"/>
<text text-anchor="start" x="149.38" y="-38.5" font-family="Helvetica,sans-Serif" font-size="10.00">ClassLibrary.Revive</text>
<text text-anchor="start" x="159.88" y="-22.5" font-family="Helvetica,sans-Serif" font-size="10.00">+</text>
<text text-anchor="start" x="183.5" y="-22.5" font-family="Helvetica,sans-Serif" font-size="10.00">Nombre</text>
<text text-anchor="start" x="159.88" y="-6.5" font-family="Helvetica,sans-Serif" font-size="10.00">+</text>
<text text-anchor="start" x="183.5" y="-6.5" font-family="Helvetica,sans-Serif" font-size="10.00">Usar()</text>
<polygon fill="#666666" stroke="#666666" points="144.5,-34 144.5,-34 249.5,-34 249.5,-34 144.5,-34"/>
<polygon fill="#666666" stroke="#666666" points="144.5,-18 144.5,-18 181.5,-18 181.5,-18 144.5,-18"/>
<polygon fill="#666666" stroke="#666666" points="181.5,-18 181.5,-18 249.5,-18 249.5,-18 181.5,-18"/>
<polygon fill="none" stroke="#666666" points="144.5,0 144.5,-52 249.5,-52 249.5,0 144.5,0"/>
</a>
</g>
</g>
<!-- Node1&#45;&gt;Node3 -->
<g id="edge2_Node000001_Node000003" class="edge">
<title>Node1&#45;&gt;Node3</title>
<g id="a_edge2_Node000001_Node000003"><a xlink:title=" ">
<path fill="none" stroke="#63b8ff" d="M197,-76.66C197,-68.29 197,-59.57 197,-51.82"/>
<polygon fill="none" stroke="#63b8ff" points="193.5,-76.61 197,-86.61 200.5,-76.61 193.5,-76.61"/>
</a>
</g>
</g>
<!-- Node4 -->
<g id="Node000004" class="node">
<title>Node4</title>
<g id="a_Node000004"><a xlink:href="classClassLibrary_1_1SuperPotion.html" target="_top" xlink:title="Representa un objeto de tipo SuperPotion, que es un ítem que puede ser usado para curar a un Pokémon.">
<polygon fill="white" stroke="none" points="398,-52 268,-52 268,0 398,0 398,-52"/>
<text text-anchor="start" x="273" y="-38.5" font-family="Helvetica,sans-Serif" font-size="10.00">ClassLibrary.SuperPotion</text>
<text text-anchor="start" x="289.38" y="-22.5" font-family="Helvetica,sans-Serif" font-size="10.00">+</text>
<text text-anchor="start" x="319" y="-22.5" font-family="Helvetica,sans-Serif" font-size="10.00">Nombre</text>
<text text-anchor="start" x="289.38" y="-6.5" font-family="Helvetica,sans-Serif" font-size="10.00">+</text>
<text text-anchor="start" x="319" y="-6.5" font-family="Helvetica,sans-Serif" font-size="10.00">Usar()</text>
<polygon fill="#666666" stroke="#666666" points="268,-34 268,-34 398,-34 398,-34 268,-34"/>
<polygon fill="#666666" stroke="#666666" points="268,-18 268,-18 317,-18 317,-18 268,-18"/>
<polygon fill="#666666" stroke="#666666" points="317,-18 317,-18 398,-18 398,-18 317,-18"/>
<polygon fill="none" stroke="#666666" points="268,0 268,-52 398,-52 398,0 268,0"/>
</a>
</g>
</g>
<!-- Node1&#45;&gt;Node4 -->
<g id="edge3_Node000001_Node000004" class="edge">
<title>Node1&#45;&gt;Node4</title>
<g id="a_edge3_Node000001_Node000004"><a xlink:title=" ">
<path fill="none" stroke="#63b8ff" d="M245.9,-82.08C261.62,-72.14 278.82,-61.26 293.75,-51.82"/>
<polygon fill="none" stroke="#63b8ff" points="244.2,-79.01 237.62,-87.32 247.94,-84.93 244.2,-79.01"/>
</a>
</g>
</g>
</g>
</svg>
