<?xml version="1.0" encoding="UTF-8" standalone="no"?>
<!DOCTYPE svg PUBLIC "-//W3C//DTD SVG 1.1//EN"
 "http://www.w3.org/Graphics/SVG/1.1/DTD/svg11.dtd">
<!-- Generated by graphviz version 9.0.0 (20230911.1827)
 -->
<!-- Title: ClassLibrary.IPokemon.Curar Pages: 1 -->
<svg width="360pt" height="68pt"
 viewBox="0.00 0.00 360.25 67.75" xmlns="http://www.w3.org/2000/svg" xmlns:xlink="http://www.w3.org/1999/xlink">
<g id="graph0" class="graph" transform="scale(1 1) rotate(0) translate(4 63.75)">
<title>ClassLibrary.IPokemon.Curar</title>
<!-- Node1 -->
<g id="Node000001" class="node">
<title>Node1</title>
<g id="a_Node000001"><a xlink:title="Cura al Pokémon, restaurando su salud hasta un máximo de su salud inicial.">
<polygon fill="#999999" stroke="#666666" points="352.25,-39.75 197.5,-39.75 197.5,-19 352.25,-19 352.25,-39.75"/>
<text text-anchor="middle" x="274.88" y="-26.25" font-family="Helvetica,sans-Serif" font-size="10.00">ClassLibrary.IPokemon.Curar</text>
</a>
</g>
</g>
<!-- Node2 -->
<g id="Node000002" class="node">
<title>Node2</title>
<g id="a_Node000002"><a xlink:href="classClassLibrary_1_1Revive.html#af65f56bccb6cb2b5930dcb8d6cb394c3" target="_top" xlink:title="Utiliza el Revive para revivir al pokemon &#160;si está debilitado (salud = 0). El Pokémon es revivido con...">
<polygon fill="white" stroke="#666666" points="149.12,-59.75 12.38,-59.75 12.38,-39 149.12,-39 149.12,-59.75"/>
<text text-anchor="middle" x="80.75" y="-46.25" font-family="Helvetica,sans-Serif" font-size="10.00">ClassLibrary.Revive.Usar</text>
</a>
</g>
</g>
<!-- Node1&#45;&gt;Node2 -->
<g id="edge1_Node000001_Node000002" class="edge">
<title>Node1&#45;&gt;Node2</title>
<g id="a_edge1_Node000001_Node000002"><a xlink:title=" ">
<path fill="none" stroke="#63b8ff" d="M185.92,-38.53C173.65,-39.81 161.21,-41.1 149.39,-42.33"/>
<polygon fill="#63b8ff" stroke="#63b8ff" points="186.02,-42.04 195.61,-37.52 185.3,-35.08 186.02,-42.04"/>
</a>
</g>
</g>
<!-- Node3 -->
<g id="Node000003" class="node">
<title>Node3</title>
<g id="a_Node000003"><a xlink:href="classClassLibrary_1_1SuperPotion.html#a65709bf71405be3c39312c7ed1e93a29" target="_top" xlink:title="Utiliza la SuperPotion para curar al pokemon , aumentando su salud sin exceder el máximo....">
<polygon fill="white" stroke="#666666" points="161.5,-20.75 0,-20.75 0,0 161.5,0 161.5,-20.75"/>
<text text-anchor="middle" x="80.75" y="-7.25" font-family="Helvetica,sans-Serif" font-size="10.00">ClassLibrary.SuperPotion.Usar</text>
</a>
</g>
</g>
<!-- Node1&#45;&gt;Node3 -->
<g id="edge2_Node000001_Node000003" class="edge">
<title>Node1&#45;&gt;Node3</title>
<g id="a_edge2_Node000001_Node000003"><a xlink:title=" ">
<path fill="none" stroke="#63b8ff" d="M185.87,-20.67C177.86,-19.88 169.78,-19.08 161.85,-18.3"/>
<polygon fill="#63b8ff" stroke="#63b8ff" points="185.31,-24.13 195.61,-21.63 186,-17.17 185.31,-24.13"/>
</a>
</g>
</g>
</g>
</svg>
