<?xml version="1.0" encoding="UTF-8" standalone="no"?>
<!DOCTYPE svg PUBLIC "-//W3C//DTD SVG 1.1//EN"
 "http://www.w3.org/Graphics/SVG/1.1/DTD/svg11.dtd">
<!-- Generated by graphviz version 9.0.0 (20230911.1827)
 -->
<!-- Title: ClassLibrary.IRegistroPokemon Pages: 1 -->
<svg width="168pt" height="372pt"
 viewBox="0.00 0.00 168.00 372.00" xmlns="http://www.w3.org/2000/svg" xmlns:xlink="http://www.w3.org/1999/xlink">
<g id="graph0" class="graph" transform="scale(1 1) rotate(0) translate(4 368)">
<title>ClassLibrary.IRegistroPokemon</title>
<!-- Node1 -->
<g id="Node000001" class="node">
<title>Node1</title>
<g id="a_Node000001"><a xlink:title="Define la interfaz para los registros de Pokémon, proporcionando propiedades para sus atributos básic...">
<polygon fill="#999999" stroke="none" points="160,-364 0,-364 0,-216 160,-216 160,-364"/>
<text text-anchor="start" x="5" y="-350.5" font-family="Helvetica,sans-Serif" font-size="10.00">ClassLibrary.IRegistroPokemon</text>
<text text-anchor="start" x="9.38" y="-334.5" font-family="Helvetica,sans-Serif" font-size="10.00">+</text>
<text text-anchor="start" x="27" y="-334.5" font-family="Helvetica,sans-Serif" font-size="10.00">Name</text>
<text text-anchor="start" x="9.38" y="-318.5" font-family="Helvetica,sans-Serif" font-size="10.00">+</text>
<text text-anchor="start" x="27" y="-318.5" font-family="Helvetica,sans-Serif" font-size="10.00">Damage</text>
<text text-anchor="start" x="9.38" y="-302.5" font-family="Helvetica,sans-Serif" font-size="10.00">+</text>
<text text-anchor="start" x="27" y="-302.5" font-family="Helvetica,sans-Serif" font-size="10.00">Health</text>
<text text-anchor="start" x="9.38" y="-286.5" font-family="Helvetica,sans-Serif" font-size="10.00">+</text>
<text text-anchor="start" x="27" y="-286.5" font-family="Helvetica,sans-Serif" font-size="10.00">Tipo</text>
<text text-anchor="start" x="9.38" y="-270.5" font-family="Helvetica,sans-Serif" font-size="10.00">+</text>
<text text-anchor="start" x="27" y="-270.5" font-family="Helvetica,sans-Serif" font-size="10.00">Ataques</text>
<text text-anchor="start" x="9.38" y="-254.5" font-family="Helvetica,sans-Serif" font-size="10.00">+</text>
<text text-anchor="start" x="27" y="-254.5" font-family="Helvetica,sans-Serif" font-size="10.00">CrearPokemon()</text>
<text text-anchor="start" x="9.38" y="-238.5" font-family="Helvetica,sans-Serif" font-size="10.00">+</text>
<text text-anchor="start" x="27" y="-238.5" font-family="Helvetica,sans-Serif" font-size="10.00">AcceptObtenerNombre()</text>
<text text-anchor="start" x="9.38" y="-222.5" font-family="Helvetica,sans-Serif" font-size="10.00">+</text>
<text text-anchor="start" x="27" y="-222.5" font-family="Helvetica,sans-Serif" font-size="10.00">AcceptCrearPokemon()</text>
<polygon fill="#666666" stroke="#666666" points="0,-346 0,-346 160,-346 160,-346 0,-346"/>
<polygon fill="#666666" stroke="#666666" points="0,-266 0,-266 25,-266 25,-266 0,-266"/>
<polygon fill="#666666" stroke="#666666" points="25,-266 25,-266 160,-266 160,-266 25,-266"/>
<polygon fill="none" stroke="#666666" points="0,-216 0,-364 160,-364 160,-216 0,-216"/>
</a>
</g>
</g>
<!-- Node2 -->
<g id="Node000002" class="node">
<title>Node2</title>
<g id="a_Node000002"><a xlink:href="classClassLibrary_1_1Registro.html" target="_top" xlink:title="Representa un registro de un Pokémon, que contiene los atributos y ataques necesarios para crear un P...">
<polygon fill="white" stroke="none" points="149,-180 11,-180 11,0 149,0 149,-180"/>
<text text-anchor="start" x="29" y="-166.5" font-family="Helvetica,sans-Serif" font-size="10.00">ClassLibrary.Registro</text>
<text text-anchor="start" x="14.88" y="-150.5" font-family="Helvetica,sans-Serif" font-size="10.00">+</text>
<text text-anchor="start" x="27" y="-150.5" font-family="Helvetica,sans-Serif" font-size="10.00">Name</text>
<text text-anchor="start" x="14.88" y="-134.5" font-family="Helvetica,sans-Serif" font-size="10.00">+</text>
<text text-anchor="start" x="27" y="-134.5" font-family="Helvetica,sans-Serif" font-size="10.00">Damage</text>
<text text-anchor="start" x="14.88" y="-118.5" font-family="Helvetica,sans-Serif" font-size="10.00">+</text>
<text text-anchor="start" x="27" y="-118.5" font-family="Helvetica,sans-Serif" font-size="10.00">Health</text>
<text text-anchor="start" x="14.88" y="-102.5" font-family="Helvetica,sans-Serif" font-size="10.00">+</text>
<text text-anchor="start" x="27" y="-102.5" font-family="Helvetica,sans-Serif" font-size="10.00">Defense</text>
<text text-anchor="start" x="14.88" y="-86.5" font-family="Helvetica,sans-Serif" font-size="10.00">+</text>
<text text-anchor="start" x="27" y="-86.5" font-family="Helvetica,sans-Serif" font-size="10.00">Tipo</text>
<text text-anchor="start" x="14.88" y="-70.5" font-family="Helvetica,sans-Serif" font-size="10.00">+</text>
<text text-anchor="start" x="27" y="-70.5" font-family="Helvetica,sans-Serif" font-size="10.00">Ataques</text>
<text text-anchor="start" x="14.88" y="-54.5" font-family="Helvetica,sans-Serif" font-size="10.00">+</text>
<text text-anchor="start" x="27" y="-54.5" font-family="Helvetica,sans-Serif" font-size="10.00">Registro()</text>
<text text-anchor="start" x="14.88" y="-38.5" font-family="Helvetica,sans-Serif" font-size="10.00">+</text>
<text text-anchor="start" x="27" y="-38.5" font-family="Helvetica,sans-Serif" font-size="10.00">CrearPokemon()</text>
<text text-anchor="start" x="14.88" y="-22.5" font-family="Helvetica,sans-Serif" font-size="10.00">+</text>
<text text-anchor="start" x="27" y="-22.5" font-family="Helvetica,sans-Serif" font-size="10.00">AcceptObtenerNombre()</text>
<text text-anchor="start" x="14.88" y="-6.5" font-family="Helvetica,sans-Serif" font-size="10.00">+</text>
<text text-anchor="start" x="27" y="-6.5" font-family="Helvetica,sans-Serif" font-size="10.00">AcceptCrearPokemon()</text>
<polygon fill="#666666" stroke="#666666" points="11,-162 11,-162 149,-162 149,-162 11,-162"/>
<polygon fill="#666666" stroke="#666666" points="11,-66 11,-66 25,-66 25,-66 11,-66"/>
<polygon fill="#666666" stroke="#666666" points="25,-66 25,-66 149,-66 149,-66 25,-66"/>
<polygon fill="none" stroke="#666666" points="11,0 11,-180 149,-180 149,0 11,0"/>
</a>
</g>
</g>
<!-- Node1&#45;&gt;Node2 -->
<g id="edge1_Node000001_Node000002" class="edge">
<title>Node1&#45;&gt;Node2</title>
<g id="a_edge1_Node000001_Node000002"><a xlink:title=" ">
<path fill="none" stroke="#63b8ff" d="M80,-204.64C80,-196.44 80,-188.1 80,-179.86"/>
<polygon fill="none" stroke="#63b8ff" points="76.5,-204.6 80,-214.6 83.5,-204.6 76.5,-204.6"/>
</a>
</g>
</g>
</g>
</svg>
