<?xml version="1.0" encoding="UTF-8" standalone="no"?>
<!DOCTYPE svg PUBLIC "-//W3C//DTD SVG 1.1//EN"
 "http://www.w3.org/Graphics/SVG/1.1/DTD/svg11.dtd">
<!-- Generated by graphviz version 9.0.0 (20230911.1827)
 -->
<!-- Title: ClassLibrary.IPokemon Pages: 1 -->
<svg width="158pt" height="204pt"
 viewBox="0.00 0.00 158.00 204.00" xmlns="http://www.w3.org/2000/svg" xmlns:xlink="http://www.w3.org/1999/xlink">
<g id="graph0" class="graph" transform="scale(1 1) rotate(0) translate(4 200)">
<title>ClassLibrary.IPokemon</title>
<!-- Node1 -->
<g id="Node000001" class="node">
<title>Node1</title>
<g id="a_Node000001"><a xlink:title="Define la interfaz para representar un Pokémon, proporcionando propiedades para sus atributos básicos...">
<polygon fill="#999999" stroke="none" points="150,-196 0,-196 0,0 150,0 150,-196"/>
<text text-anchor="start" x="20.25" y="-182.5" font-family="Helvetica,sans-Serif" font-size="10.00">ClassLibrary.IPokemon</text>
<text text-anchor="start" x="3.88" y="-166.5" font-family="Helvetica,sans-Serif" font-size="10.00">+</text>
<text text-anchor="start" x="16" y="-166.5" font-family="Helvetica,sans-Serif" font-size="10.00">Name</text>
<text text-anchor="start" x="3.88" y="-150.5" font-family="Helvetica,sans-Serif" font-size="10.00">+</text>
<text text-anchor="start" x="16" y="-150.5" font-family="Helvetica,sans-Serif" font-size="10.00">Damage</text>
<text text-anchor="start" x="3.88" y="-134.5" font-family="Helvetica,sans-Serif" font-size="10.00">+</text>
<text text-anchor="start" x="16" y="-134.5" font-family="Helvetica,sans-Serif" font-size="10.00">Defense</text>
<text text-anchor="start" x="3.88" y="-118.5" font-family="Helvetica,sans-Serif" font-size="10.00">+</text>
<text text-anchor="start" x="16" y="-118.5" font-family="Helvetica,sans-Serif" font-size="10.00">Health</text>
<text text-anchor="start" x="3.88" y="-102.5" font-family="Helvetica,sans-Serif" font-size="10.00">+</text>
<text text-anchor="start" x="16" y="-102.5" font-family="Helvetica,sans-Serif" font-size="10.00">Estado</text>
<text text-anchor="start" x="3.88" y="-86.5" font-family="Helvetica,sans-Serif" font-size="10.00">+</text>
<text text-anchor="start" x="16" y="-86.5" font-family="Helvetica,sans-Serif" font-size="10.00">Tipo</text>
<text text-anchor="start" x="3.88" y="-70.5" font-family="Helvetica,sans-Serif" font-size="10.00">+</text>
<text text-anchor="start" x="16" y="-70.5" font-family="Helvetica,sans-Serif" font-size="10.00">InicialHealth</text>
<text text-anchor="start" x="3.88" y="-54.5" font-family="Helvetica,sans-Serif" font-size="10.00">+</text>
<text text-anchor="start" x="16" y="-54.5" font-family="Helvetica,sans-Serif" font-size="10.00">Ataques</text>
<text text-anchor="start" x="3.88" y="-38.5" font-family="Helvetica,sans-Serif" font-size="10.00">+</text>
<text text-anchor="start" x="16" y="-38.5" font-family="Helvetica,sans-Serif" font-size="10.00">DecreaseHealth()</text>
<text text-anchor="start" x="3.88" y="-22.5" font-family="Helvetica,sans-Serif" font-size="10.00">+</text>
<text text-anchor="start" x="16" y="-22.5" font-family="Helvetica,sans-Serif" font-size="10.00">Curar()</text>
<text text-anchor="start" x="3.88" y="-6.5" font-family="Helvetica,sans-Serif" font-size="10.00">+</text>
<text text-anchor="start" x="16" y="-6.5" font-family="Helvetica,sans-Serif" font-size="10.00">EliminarEfectosDeEstado()</text>
<polygon fill="#666666" stroke="#666666" points="0,-178 0,-178 150,-178 150,-178 0,-178"/>
<polygon fill="#666666" stroke="#666666" points="0,-50 0,-50 14,-50 14,-50 0,-50"/>
<polygon fill="#666666" stroke="#666666" points="14,-50 14,-50 150,-50 150,-50 14,-50"/>
<polygon fill="none" stroke="#666666" points="0,0 0,-196 150,-196 150,0 0,0"/>
</a>
</g>
</g>
</g>
</svg>
